<?xml version="1.0" standalone="no"?>
<!DOCTYPE svg PUBLIC "-//W3C//DTD SVG 20010904//EN"
 "http://www.w3.org/TR/2001/REC-SVG-20010904/DTD/svg10.dtd">
<svg version="1.0" xmlns="http://www.w3.org/2000/svg"
 width="1000.000000pt" height="1000.000000pt" viewBox="0 0 1000.000000 1000.000000"
 preserveAspectRatio="xMidYMid meet">
<metadata>
Created by potrace 1.11, written by Peter Selinger 2001-2013
</metadata>
<g transform="translate(0.000000,1000.000000) scale(0.100000,-0.100000)"
fill="#000000" stroke="none">
<path d="M686 8575 c-9 -13 -16 -27 -16 -30 0 -3 782 -5 1739 -5 l1739 0 16
25 c9 13 16 27 16 30 0 3 -782 5 -1739 5 l-1739 0 -16 -25z"/>
<path d="M1236 8205 c-58 -91 -106 -167 -106 -170 0 -3 960 -5 2134 -5 l2133
0 64 98 c34 53 84 130 111 170 l48 72 -2139 0 -2138 0 -107 -165z"/>
<path d="M1350 7951 c-5 -11 -10 -22 -10 -25 0 -3 1043 -6 2319 -6 l2319 0 16
25 16 25 -2324 0 c-2289 0 -2325 0 -2336 -19z"/>
<path d="M276 7805 l-16 -25 2589 0 c2551 0 2590 0 2601 19 5 11 10 22 10 25
0 3 -1163 6 -2584 6 l-2584 0 -16 -25z"/>
<path d="M1090 7564 c-83 -26 -218 -90 -295 -139 -121 -77 -275 -262 -275
-330 0 -13 384 -15 3670 -15 l3671 0 -32 48 c-150 221 -338 394 -484 443 -33
11 -571 13 -3115 14 l-3075 0 -65 -21z"/>
<path d="M0 6558 l0 -358 194 0 c214 0 212 0 223 -64 l6 -36 -212 0 -211 0 0
-70 0 -70 191 0 191 0 -7 -30 c-4 -17 -15 -58 -24 -93 l-18 -62 -166 -3 -167
-2 0 -35 0 -35 156 0 156 0 -6 -22 c-4 -13 -8 -30 -10 -38 -2 -8 -20 -73 -41
-143 -20 -71 -38 -137 -41 -148 -7 -34 -12 -52 -47 -174 -38 -132 -97 -341
-102 -365 -2 -8 -18 -64 -34 -123 l-31 -108 2 -927 3 -927 1627 -1 c1478 -1
1628 1 1634 15 6 15 50 167 58 201 36 145 140 489 161 530 139 274 383 465
668 524 102 21 425 22 513 1 202 -47 342 -192 371 -383 12 -78 4 -193 -17
-267 -12 -38 -23 -77 -25 -85 -2 -8 -35 -129 -74 -269 -39 -140 -71 -257 -71
-262 0 -7 1163 -3 1280 5 30 2 111 7 180 11 69 4 143 8 165 10 130 10 214 17
245 20 19 2 62 7 95 10 33 3 71 8 85 10 14 2 50 7 80 10 30 4 62 9 70 10 17 3
92 15 135 21 39 6 170 32 243 48 149 33 308 84 386 123 48 24 57 25 247 25
l198 -1 17 57 c9 31 29 104 45 162 58 207 58 207 26 219 -14 5 -45 12 -69 15
-23 2 -44 5 -45 5 -1 1 7 31 18 69 17 58 75 279 84 322 2 8 11 47 20 85 9 39
19 81 21 95 3 14 9 41 14 60 12 48 42 193 54 265 2 11 11 58 20 105 8 47 18
108 22 135 3 28 8 59 10 70 2 11 6 40 9 65 3 25 8 54 10 65 2 11 7 58 11 105
3 47 8 87 9 90 18 31 27 643 13 813 -19 219 -70 470 -129 631 -35 94 -125 278
-150 305 -16 17 -64 29 -179 46 -19 3 -60 10 -90 15 -30 5 -82 12 -115 15 -33
4 -67 8 -75 10 -8 2 -46 7 -85 11 -38 3 -77 8 -86 9 -9 2 -56 6 -105 10 -49 3
-100 8 -114 10 -107 16 -655 18 -3827 19 l-3593 1 0 -357z m5148 -327 c12 0
38 -16 58 -33 48 -45 47 -71 -6 -265 l-44 -163 -1148 0 -1147 0 20 68 c11 37
22 79 26 95 5 27 7 27 83 27 l78 0 41 63 c22 35 41 66 41 70 0 4 -43 7 -95 7
-52 0 -95 4 -95 8 0 4 19 27 42 50 l41 42 561 0 c525 0 562 1 572 18 10 16 43
17 480 16 258 -1 479 -2 492 -3z m2542 -4 c0 -9 -21 -88 -46 -172 -8 -27 -16
-59 -18 -70 -3 -11 -27 -99 -54 -195 -27 -96 -66 -236 -87 -310 -20 -74 -43
-155 -50 -180 -8 -25 -33 -112 -55 -195 -23 -82 -57 -206 -76 -275 -20 -69
-44 -156 -55 -195 -80 -291 -167 -605 -184 -660 -8 -27 -17 -59 -20 -70 -2
-11 -32 -117 -65 -235 -34 -118 -66 -232 -71 -253 -17 -69 -107 -382 -117
-407 -15 -39 -81 -101 -132 -124 -44 -20 -62 -20 -771 -21 l-726 0 12 45 c7
25 59 209 115 410 56 201 106 379 110 395 28 103 55 201 77 275 13 47 26 92
28 100 2 8 47 170 100 360 53 190 99 353 101 363 8 32 13 52 49 177 20 69 38
132 40 140 2 8 19 71 38 140 20 69 58 207 86 308 28 101 79 281 112 400 34
119 62 222 63 227 1 6 4 15 8 20 8 12 1588 14 1588 2z m-4871 -49 c7 -12 15
-34 18 -50 l4 -28 -1147 0 c-1090 0 -1146 1 -1133 18 7 9 26 32 43 50 l30 32
1086 0 1085 0 14 -22z m5494 -205 c65 -33 102 -112 122 -260 20 -151 -6 -770
-41 -958 -2 -10 -6 -37 -10 -59 -16 -112 -78 -252 -134 -304 -56 -52 -79 -56
-323 -57 -247 0 -278 5 -305 55 -22 43 -7 121 103 515 182 650 185 663 191
685 17 74 69 244 86 282 38 86 92 117 206 118 49 0 84 -5 105 -17z m-5513 -16
c0 -2 -7 -28 -16 -58 -9 -30 -17 -58 -19 -64 -1 -5 -5 -22 -10 -37 l-7 -28
-1144 0 c-629 0 -1144 3 -1144 8 0 7 37 145 45 170 3 9 242 12 1150 12 630 0
1145 -1 1145 -3z m-75 -269 c-2 -7 -36 -128 -75 -268 -39 -140 -86 -309 -105
-375 -18 -66 -59 -212 -90 -325 -31 -113 -67 -224 -80 -246 -27 -46 -101 -101
-149 -109 -17 -3 -487 -4 -1043 -3 l-1013 3 -29 30 c-36 36 -45 85 -26 152 7
26 43 156 80 288 37 132 68 247 70 255 3 8 30 105 61 215 56 199 76 271 97
353 l10 42 1148 0 c914 0 1147 -3 1144 -12z m2405 1 c0 -5 -39 -148 -86 -317
-47 -169 -99 -356 -116 -417 -81 -294 -131 -462 -143 -480 -24 -37 -70 -78
-110 -96 -38 -18 -92 -19 -1053 -19 -1112 0 -1058 -3 -1095 59 -9 16 -17 42
-17 57 0 28 97 384 312 1147 l22 77 1143 0 c801 0 1143 -3 1143 -11z"/>
<path d="M6136 6123 c-8 -27 -33 -115 -56 -198 -23 -82 -68 -246 -101 -362
-33 -117 -62 -221 -64 -230 -2 -10 -15 -56 -28 -103 -48 -165 -79 -276 -98
-350 -11 -41 -44 -160 -74 -265 -30 -104 -75 -266 -100 -360 -26 -93 -53 -190
-60 -215 -8 -25 -39 -137 -71 -250 -72 -264 -125 -454 -170 -609 -20 -69 -37
-132 -39 -140 -2 -9 -9 -32 -14 -51 -6 -19 -11 -41 -11 -47 0 -18 1293 -19
1351 -1 46 13 113 68 135 110 8 16 33 93 55 171 47 165 119 425 124 447 2 8
22 80 45 160 22 80 70 251 106 380 36 129 74 264 85 300 10 36 41 148 69 250
28 102 60 214 70 250 10 36 49 173 85 305 37 132 77 278 91 325 48 169 144
517 144 523 0 4 -328 7 -729 7 l-729 0 -16 -47z m641 -97 c3 -2 -13 -69 -35
-148 -23 -79 -57 -201 -76 -273 -20 -71 -40 -143 -45 -160 -11 -33 -171 -609
-176 -634 -2 -9 -23 -81 -45 -161 -23 -80 -43 -152 -46 -160 -2 -8 -17 -62
-33 -120 -94 -338 -136 -489 -167 -600 -19 -69 -41 -147 -49 -175 -25 -85 -75
-264 -108 -387 l-32 -118 -267 0 c-148 0 -268 2 -268 5 0 3 9 38 21 78 33 116
110 391 114 407 2 8 38 139 80 290 43 151 85 304 95 340 51 186 156 562 192
685 22 77 41 147 43 155 2 8 15 58 30 110 15 52 29 102 31 110 1 8 26 96 54
195 28 99 64 227 80 285 68 250 76 273 93 279 19 7 507 4 514 -3z m678 2 c3
-3 -61 -233 -191 -693 -25 -88 -47 -169 -49 -179 -3 -10 -21 -76 -41 -145 -20
-69 -38 -134 -40 -143 -2 -10 -6 -26 -8 -35 -4 -16 -62 -220 -101 -358 -17
-59 -106 -379 -165 -590 -23 -82 -59 -211 -80 -285 -21 -74 -55 -195 -74 -268
-44 -163 -60 -190 -133 -229 -24 -13 -453 -19 -466 -7 -3 4 -2 14 3 24 5 9 12
30 14 46 3 16 10 45 16 64 6 19 71 253 146 520 74 267 143 514 154 550 22 75
130 465 135 489 2 9 17 63 34 121 17 58 78 276 136 485 198 709 173 634 209
637 41 4 497 1 501 -4z"/>
<path d="M4240 3762 c-236 -36 -483 -195 -630 -404 -65 -92 -120 -207 -135
-283 -5 -22 -10 -47 -12 -55 -2 -8 -5 -44 -7 -80 -11 -204 89 -386 255 -467
89 -42 158 -57 269 -56 355 4 729 287 844 639 23 71 26 88 33 175 18 244 -114
445 -337 514 -52 16 -221 27 -280 17z m100 -298 c54 -9 104 -39 147 -88 133
-151 58 -415 -161 -570 -123 -87 -278 -118 -387 -77 -64 24 -119 73 -151 134
-31 59 -31 188 1 269 59 151 219 292 371 327 82 19 96 19 180 5z"/>
</g>
</svg>
